<svg class="svg-icon" style="width: 1.001953125em; height: 1em;vertical-align: middle;fill: currentColor;overflow: hidden;" viewBox="0 0 1026 1024" version="1.1" xmlns="http://www.w3.org/2000/svg"><path d="M940.032 1008.64l-855.04 0c-54.272 0-84.992-32.768-84.992-91.136 0-111.616 99.328-273.408 278.528-273.408 11.264 0 19.456 9.216 19.456 19.456s-9.216 19.456-19.456 19.456c-153.6 0-238.592 138.24-238.592 234.496 0 46.08 24.576 51.2 45.056 51.2l855.04 0c21.504 0 45.056-6.144 45.056-51.2 0-95.232-84.992-234.496-238.592-234.496-11.264 0-19.456-9.216-19.456-19.456s9.216-19.456 19.456-19.456C925.696 644.096 1025.024 805.888 1025.024 917.504 1025.024 974.848 994.304 1008.64 940.032 1008.64z"  /><path d="M513.024 629.76c-153.6 0-279.552-137.216-279.552-307.2S359.424 15.36 513.024 15.36s279.552 137.216 279.552 307.2S666.624 629.76 513.024 629.76zM513.024 55.296c-132.096 0-239.616 119.808-239.616 267.264S380.928 589.824 513.024 589.824s239.616-119.808 239.616-267.264S645.12 55.296 513.024 55.296z"  /></svg>