<svg version="1.0" xmlns="http://www.w3.org/2000/svg"
 width="341.000000pt" height="217.000000pt" viewBox="0 0 341.000000 217.000000"
 preserveAspectRatio="xMidYMid meet">

<g transform="translate(0.000000,217.000000) scale(0.100000,-0.100000)"
fill="#000000" stroke="none">
<path d="M40 1805 l0 -365 67 0 67 0 -45 -28 c-108 -69 -129 -202 -46 -290 43
-46 86 -66 214 -102 150 -43 183 -81 124 -141 -59 -59 -162 -26 -190 60 l-14
44 -60 -7 c-33 -3 -80 -6 -103 -6 -39 0 -44 -2 -44 -24 0 -64 54 -155 114
-191 l41 -25 -62 0 -63 0 0 -365 0 -365 115 0 115 0 0 150 0 150 125 0 125 0
0 -150 0 -150 110 0 110 0 2 316 3 316 108 -160 107 -159 0 -156 0 -157 115 0
115 0 0 150 0 150 108 161 107 162 3 -312 2 -311 310 0 310 0 0 70 0 70 38
-42 c20 -22 64 -54 97 -70 56 -26 68 -28 186 -28 88 0 139 5 172 16 60 20 139
91 169 152 l23 47 3 -107 3 -108 104 0 105 0 2 196 3 196 133 -196 133 -196
105 0 104 0 0 365 0 365 -105 0 -105 0 -2 -197 -3 -197 -134 197 -134 197
-103 0 -104 0 0 -107 0 -108 -26 45 c-35 63 -81 108 -138 137 l-49 25 56 23
c31 12 79 37 107 55 l50 32 0 149 0 149 -175 0 -175 0 0 -85 0 -85 75 0 c73 0
75 -1 75 -25 0 -21 -8 -27 -57 -41 -114 -33 -216 2 -244 83 -17 49 -17 167 0
216 7 21 28 49 49 65 30 23 45 27 99 27 62 0 66 -2 99 -38 l35 -37 92 16 c126
22 117 17 104 60 -15 51 -88 128 -139 149 -58 23 -219 31 -300 15 -112 -22
-192 -80 -242 -177 l-25 -48 -1 113 0 112 -95 0 -95 0 0 80 0 80 -195 0 -195
0 0 70 0 70 175 0 175 0 0 75 0 75 -175 0 -175 0 0 50 0 50 190 0 190 0 0 85
0 85 -605 0 -605 0 0 -275 0 -275 -155 0 -155 0 0 275 0 275 -115 0 -115 0 0
-365z m1140 0 l0 -195 -185 0 -185 0 0 70 0 70 175 0 175 0 0 75 0 75 -175 0
-175 0 0 50 0 50 185 0 185 0 0 -195z m-345 -382 c-3 -10 -40 -108 -82 -218
-41 -110 -78 -204 -83 -208 -4 -5 -10 5 -13 22 -9 43 -69 105 -125 129 -26 11
-94 32 -152 47 -120 30 -150 50 -132 89 12 28 57 41 106 32 37 -7 60 -28 71
-65 7 -23 9 -24 83 -17 41 3 88 6 104 6 33 0 37 20 13 78 -19 43 -48 77 -90
103 -30 19 -30 19 139 19 156 0 168 -1 161 -17z m465 -245 c0 -160 -4 -257
-10 -248 -9 16 -190 497 -190 505 0 3 45 5 100 5 l100 0 0 -262z m480 70 c0
-114 -4 -188 -9 -182 -13 13 -251 364 -251 369 0 3 59 5 130 5 l130 0 0 -192z
m-775 -118 c19 -62 35 -116 35 -121 0 -5 -34 -9 -75 -9 -41 0 -75 3 -75 6 0
15 74 244 77 240 2 -2 19 -54 38 -116z m637 -205 c63 -93 118 -176 122 -182 6
-10 -22 -13 -123 -13 l-131 0 0 192 c0 108 4 188 9 183 4 -6 60 -86 123 -180z
m448 -127 c22 -20 60 -44 83 -54 l43 -18 -58 -28 c-32 -16 -75 -50 -98 -75
l-40 -46 0 77 c0 61 -3 76 -15 76 -12 0 -15 19 -15 108 l0 107 30 -55 c17 -30
48 -71 70 -92z m-979 -18 l16 -55 46 -3 46 -3 -61 -102 c-34 -56 -66 -108 -72
-115 -9 -9 -27 15 -81 108 l-70 119 -63 1 -64 0 7 33 c18 82 10 78 152 75
l127 -3 17 -55z m-528 -28 c-4 -16 -13 -22 -34 -22 l-29 0 0 -125 0 -125 -125
0 -125 0 0 114 0 113 99 5 c84 4 109 9 158 34 32 16 59 29 60 29 1 -1 0 -11
-4 -23z m1855 -209 c51 -38 66 -79 66 -173 0 -64 -5 -95 -19 -125 -55 -111
-196 -113 -259 -5 -30 51 -30 199 0 250 32 56 80 83 137 77 27 -2 61 -13 75
-24z m-433 -5 c-4 -13 -9 -35 -12 -50 l-5 -28 -174 0 -174 0 0 50 0 50 186 0
186 0 -7 -22z m-18 -275 c6 -27 14 -58 18 -70 l7 -23 -186 0 -186 0 0 70 0 70
168 0 168 0 11 -47z"/>
</g>
</svg>
